<?xml version="1.0" standalone="yes"?>
<svg xmlns="http://www.w3.org/2000/svg" width="600" height="404">
<path style="fill:#000000; stroke:none;" d="M0 0L0 404L600 404L600 0L0 0z"/>
<path style="fill:#60b0f4; stroke:none;" d="M290 29.4244C278.125 30.9843 266.444 32.1691 255 36.0787C218.492 48.551 188.086 76.4754 172.873 112C152.692 159.124 160.815 216.934 194.3 256C206.708 270.477 222.014 281.775 239 290.247C250.347 295.907 262.48 299.965 275 302.079C287.267 304.151 300.583 305.199 313 303.715C380.597 295.63 432.247 242.104 436.91 174C441.875 101.506 384.198 35.2036 312 29.9113C304.616 29.37 297.422 28.4494 290 29.4244z"/>
<path style="fill:#00ffff; stroke:none;" d="M308 29L309 30L308 29z"/>
<path style="fill:#80ffff; stroke:none;" d="M325 31L326 32L325 31z"/>
<path style="fill:#7d9cd3; stroke:none;" d="M299 36C300.248 36.6848 300.548 36.7488 302 37C300.752 36.3152 300.452 36.2512 299 36z"/>
<path style="fill:#bc7188; stroke:none;" d="M295.667 37.3333C295.222 37.7777 296.278 37.7222 296.333 37.6667C296.778 37.2222 295.722 37.2778 295.667 37.3333z"/>
<path style="fill:#ec5252; stroke:none;" d="M282 147L204 147C194.591 147 181.279 144.494 174.815 153.185C167.576 162.918 170.625 181.342 184 183.779C196.068 185.979 208.79 185 221 185L281 185L281 266C281 277.185 279.189 290.125 292 295.005C301.772 298.728 315.533 294.008 317.66 283C318.539 278.452 317.838 273.605 318.039 269C318.377 261.298 319 253.749 319 246L319 185C345.642 185 372.298 186 399 186C410.719 186 423.953 187.385 428.867 174C432.855 163.135 426.681 150.381 415 148.329C404.847 146.544 393.3 148 383 148L319 148C319 122.394 320 96.6809 320 71C320 61.5532 322.333 48.3151 313.895 41.6381C301.978 32.2083 285.258 38.3524 282.616 53C280.707 63.5805 282 75.2698 282 86L282 147z"/>
<path style="fill:#8a94c4; stroke:none;" d="M305.667 37.3333C305.222 37.7777 306.278 37.7223 306.333 37.6667C306.778 37.2222 305.722 37.2778 305.667 37.3333z"/>
<path style="fill:#af7a97; stroke:none;" d="M293 38L294 39L293 38z"/>
<path style="fill:#bd7087; stroke:none;" d="M308 38L309 39L308 38z"/>
<path style="fill:#a184a9; stroke:none;" d="M291 39L292 40L291 39z"/>
<path style="fill:#b37792; stroke:none;" d="M310 39L311 40L310 39z"/>
<path style="fill:#948cb7; stroke:none;" d="M312 40L313 41L312 40z"/>
<path style="fill:#000000; stroke:none;" d="M174 153C177.21 151.068 180.355 148.69 184 147.638C192.934 145.06 204.737 147 214 147L282 147L282 81C282 66.7965 280.486 53.6112 288 41C228.317 45.7168 181.409 94.6814 174 153M314 41L315 42L314 41z"/>
<path style="fill:#80ffff; stroke:none;" d="M277 42L278 43L277 42z"/>
<path style="fill:#000000; stroke:none;" d="M315 42C321.578 54.0422 320 66.6087 320 80C320 102.687 319 125.383 319 148L386 148C399.657 148 412.718 146.291 425 153C422.555 140.024 420.159 127.143 414.688 115C401.729 86.2326 377.879 63.1718 349 50.7191C338.444 46.1673 326.597 42.2394 315 42z"/>
<path style="fill:#80ffff; stroke:none;" d="M272 43L273 44L272 43M230 47L231 48L230 47z"/>
<path style="fill:#ff0000; stroke:none;" d="M318 47L319 48L318 47z"/>
<path style="fill:#00ffff; stroke:none;" d="M225 50L226 51L225 50M250 50L251 51L250 50z"/>
<path style="fill:#80ffff; stroke:none;" d="M350 51L351 52L350 51z"/>
<path style="fill:#ff0000; stroke:none;" d="M282 53L283 54L282 53z"/>
<path style="fill:#00ffff; stroke:none;" d="M219 54L220 55L219 54z"/>
<path style="fill:#80ffff; stroke:none;" d="M360 56L361 57L360 56M365 59L366 60L365 59z"/>
<path style="fill:#00ffff; stroke:none;" d="M210 61L211 62L210 61z"/>
<path style="fill:#80ffff; stroke:none;" d="M370 62L371 63L370 62z"/>
<path style="fill:#00ffff; stroke:none;" d="M389 62L390 63L389 62z"/>
<path style="fill:#80ffff; stroke:none;" d="M390 63L391 64L390 63z"/>
<path style="fill:#00ffff; stroke:none;" d="M220 68L221 69L220 68z"/>
<path style="fill:#80ffff; stroke:none;" d="M401 74L402 75L401 74M210 77L211 78L210 77M410 85L411 86L410 85z"/>
<path style="fill:#00ffff; stroke:none;" d="M413 89L414 90L413 89M406 100L407 101L406 100M169 121L170 122L169 121M418 125L419 126L418 125M166 131L167 132L166 131z"/>
<path style="fill:#80ffff; stroke:none;" d="M420 131L421 132L420 131z"/>
<path style="fill:#ff0000; stroke:none;" d="M319 134L320 135L319 134z"/>
<path style="fill:#00ffff; stroke:none;" d="M165 135L166 136L165 135z"/>
<path style="fill:#80ffff; stroke:none;" d="M421 135L422 136L421 135z"/>
<path style="fill:#ff0000; stroke:none;" d="M419 149L420 150L419 149M177 150L178 151L177 150z"/>
<path style="fill:#80ffff; stroke:none;" d="M162 153L163 154L162 153z"/>
<path style="fill:#b7758f; stroke:none;" d="M173 155L174 156L173 155z"/>
<path style="fill:#9d87ad; stroke:none;" d="M426 155L427 156L426 155z"/>
<path style="fill:#a582a5; stroke:none;" d="M172 157L173 158L172 157z"/>
<path style="fill:#9a89b1; stroke:none;" d="M428 158L429 159L428 158z"/>
<path style="fill:#928eba; stroke:none;" d="M171 159L172 160L171 159z"/>
<path style="fill:#b6758e; stroke:none;" d="M429.333 160.667C429.278 160.722 429.222 161.778 429.667 161.333C429.722 161.278 429.778 160.222 429.333 160.667z"/>
<path style="fill:#8995c5; stroke:none;" d="M170.333 162.667C170.278 162.722 170.222 163.778 170.667 163.333C170.722 163.278 170.778 162.222 170.333 162.667z"/>
<path style="fill:#809bd0; stroke:none;" d="M430 163L430 166C430.696 164.446 430.696 164.554 430 163z"/>
<path style="fill:#a184a9; stroke:none;" d="M170 164L170 167C170.696 165.446 170.696 165.554 170 164z"/>
<path style="fill:#a682a4; stroke:none;" d="M430 166L430 169C430.696 167.446 430.696 167.554 430 166z"/>
<path style="fill:#7e9cd2; stroke:none;" d="M170.333 167.667C170.278 167.722 170.222 168.778 170.667 168.333C170.722 168.278 170.778 167.222 170.333 167.667z"/>
<path style="fill:#7b9ed5; stroke:none;" d="M430.333 169.667C430.278 169.722 430.222 170.778 430.667 170.333C430.722 170.278 430.778 169.222 430.333 169.667z"/>
<path style="fill:#ba728a; stroke:none;" d="M429 172L430 173L429 172z"/>
<path style="fill:#b47691; stroke:none;" d="M172 173L173 174L172 173z"/>
<path style="fill:#998ab2; stroke:none;" d="M428 175L429 176L428 175z"/>
<path style="fill:#000000; stroke:none;" d="M174 178C176.577 238.012 228.774 284.761 286 292C279.173 280.542 281 267.957 281 255L281 185L215 185C200.122 185 186.849 186.383 174 178z"/>
<path style="fill:#9c88af; stroke:none;" d="M426 178L427 179L426 178z"/>
<path style="fill:#80ffff; stroke:none;" d="M162 179L163 180L162 179z"/>
<path style="fill:#ff0000; stroke:none;" d="M178 181L179 182L178 181M424 181L425 182L424 181z"/>
<path style="fill:#000000; stroke:none;" d="M423 182C413.349 187.992 400.923 186 390 186C366.294 186 342.65 185 319 185L319 251C319 264.806 319.699 279.784 313 292C355.556 286.617 392.914 261.666 412.247 223C416.694 214.107 420.127 204.696 422.349 195C423.324 190.743 424.724 186.148 423 182z"/>
<path style="fill:#ff0000; stroke:none;" d="M189.667 184.333C189.222 184.778 190.278 184.722 190.333 184.667C190.778 184.222 189.722 184.278 189.667 184.333M338.667 185.333C338.222 185.778 339.278 185.722 339.333 185.667C339.778 185.222 338.722 185.278 338.667 185.333z"/>
<path style="fill:#00ffff; stroke:none;" d="M433 197L434 198L433 197M417 210L418 211L417 210M170 214L171 215L170 214z"/>
<path style="fill:#80ffff; stroke:none;" d="M426 219L427 220L426 219M187 224L188 225L187 224z"/>
<path style="fill:#00ffff; stroke:none;" d="M188 226L189 227L188 226M191 231L192 232L191 231M178 232L179 233L178 232M194 236L195 237L194 236M415 240L416 241L415 240M391 252L392 253L391 252M405 254L406 255L405 254z"/>
<path style="fill:#80ffff; stroke:none;" d="M384 259L385 260L384 259z"/>
<path style="fill:#00ffff; stroke:none;" d="M215 260L216 261L215 260z"/>
<path style="fill:#ff0000; stroke:none;" d="M318 264L319 265L318 264z"/>
<path style="fill:#00ffff; stroke:none;" d="M369 271L370 272L369 271M211 272L212 273L211 272M364 274L365 275L364 274z"/>
<path style="fill:#80ffff; stroke:none;" d="M215 275L216 276L215 275z"/>
<path style="fill:#00ffff; stroke:none;" d="M359 277L360 278L359 277z"/>
<path style="fill:#80ffff; stroke:none;" d="M357 278L358 279L357 278M243 279L244 280L243 279z"/>
<path style="fill:#00ffff; stroke:none;" d="M373 282L374 283L373 282M252 283L253 284L252 283M263 287L264 288L263 287M267 288L268 289L267 288z"/>
<path style="fill:#ff0000; stroke:none;" d="M283 288L284 289L283 288z"/>
<path style="fill:#918eb8; stroke:none;" d="M287 292L288 293L287 292z"/>
<path style="fill:#988bb2; stroke:none;" d="M311 292L312 293L311 292z"/>
<path style="fill:#00ffff; stroke:none;" d="M248 294L249 295L248 294z"/>
<path style="fill:#988bb5; stroke:none;" d="M290 294L291 295L290 294z"/>
<path style="fill:#918fbb; stroke:none;" d="M308 294L309 295L308 294z"/>
<path style="fill:#a87f9f; stroke:none;" d="M305 295L306 296L305 295z"/>
<path style="fill:#a681a4; stroke:none;" d="M296.667 296.333C296.222 296.778 297.278 296.722 297.333 296.667C297.778 296.222 296.722 296.278 296.667 296.333z"/>
<path style="fill:#c66a7d; stroke:none;" d="M298 296C299.248 296.685 299.548 296.749 301 297C299.752 296.315 299.452 296.251 298 296z"/>
<path style="fill:#8e91bf; stroke:none;" d="M301.667 296.333C301.222 296.778 302.278 296.722 302.333 296.667C302.778 296.222 301.722 296.278 301.667 296.333z"/>
<path style="fill:#00ffff; stroke:none;" d="M259 298L260 299L259 298M263 299L264 300L263 299M267 300L268 301L267 300z"/>
<path style="fill:#ff001c; stroke:none;" d="M330 322L330 342C327.567 339.817 325.195 337.649 322 336.653C319.785 335.962 317.3 335.913 315 336.045C291.953 337.367 298.636 379.411 322 371.941C325.196 370.92 327.504 369.164 330 367C331.178 370.882 333.048 371.699 337 372C336.769 368.527 335.296 365.44 335.054 361.985C334.13 348.79 335 335.23 335 322L330 322M384 360C375.327 358.571 370.837 369.61 361 366.297C351.011 362.933 345.681 350.568 349.479 341C352.907 332.364 362.903 325.228 371.995 330.892C374.545 332.48 376.281 334.611 378 337C379.875 336.453 381.255 335.89 383 335C378.968 323.148 364.178 320.425 354.004 326.213C346.263 330.617 341.898 339.133 342.129 348C342.355 356.703 347.062 366.011 355.001 370C365.002 375.025 381.146 371.973 384 360M114 324C118.281 336.576 124.207 348.78 129.421 361C130.709 364.017 132.576 372.06 137 371.534C139.789 371.203 140.996 368.213 141.995 365.995C144.388 360.688 146.509 355.264 149 350C151.983 357.69 154.379 371.68 164 372C168.695 355.578 177.516 339.805 184 324C175.853 324.097 175.177 329.264 172.281 336C168.312 345.232 164.633 354.632 161 364C158.236 358.816 153.108 350.421 153.244 344.424C153.397 337.643 158.97 330.874 160 324C152.497 324.583 151.098 332.798 149 339C145.975 332.533 145.306 324.276 137 324C138.804 330.594 144.548 338.108 144.282 345C144.043 351.184 139.327 358.328 137 364C132.733 354.879 129.14 345.351 125.4 336C122.844 329.612 121.694 324.252 114 324M194 336.558C172.724 342.149 181.799 378.085 204 372.071C226.652 365.935 217.286 330.439 194 336.558M224 336C224 344.825 221.968 356.551 224.653 364.996C227.097 372.687 235.267 374.101 241.998 371.388C244.614 370.334 246.777 368.689 249 367C250.384 370.768 252.044 371.695 256 372C255.78 368.537 254.513 365.418 254.129 362C253.177 353.523 254 344.53 254 336L249 336C249 343.384 251.065 354.46 246.991 360.96C243.617 366.342 236.141 369.682 231.514 363.887C226.378 357.456 229 343.776 229 336L224 336M264 336L264 372L269 372C269 364.436 266.953 353.495 271.653 347.043C274.666 342.907 281.112 339.015 285.566 343.434C291.434 349.257 289 364.462 289 372L294 372C294 360.818 298.828 335.808 282 336.02C279.951 336.046 277.92 336.238 276.002 337.008C273.254 338.11 271.166 340.057 269 342L269 336L264 336M390 340L391 344C398.001 341.999 408.139 336.505 411.486 346.991C412.005 348.617 411.95 350.319 412 352C408.967 351.103 406.169 350.99 403 351.001C398.697 351.015 393.66 351.084 390.434 354.419C384.806 360.237 388.942 370.203 396.001 372.343C401.71 374.074 408.376 371.148 413 368C414.437 371.576 416.286 371.877 420 372C419.769 368.527 418.296 365.44 418.054 361.985C417.271 350.798 419.707 336.142 404 336.005C402.005 335.987 399.959 335.968 398 336.39C395.089 337.018 392.542 338.524 390 340M427 336L427 372L432 372C432 365.116 430.223 355.291 433.457 349.015C436.629 342.859 444.426 343.37 445 336C439.528 336.284 435.491 337.936 433 343C432.278 340.582 432.052 338.528 432 336L427 336M479 363L474 362C466.091 372.071 455.673 366.51 452 356L482 356C481.847 348.808 479.498 341.932 472.996 338.009C461.829 331.271 447.583 339.628 446.189 352C445.465 358.423 448.434 366.282 454.043 369.772C462.374 374.957 476.024 373.507 479 363z"/>
<path style="fill:#000000; stroke:none;" d="M452 352L476 352C474.285 336.603 454.623 337.521 452 352M196.004 341.654C181.909 346.059 187.214 371.583 202 367.333C217.484 362.882 211.995 336.655 196.004 341.654M314.004 341.742C299.857 347.199 307.26 371.947 321.999 366.812C336.691 361.695 329.247 335.863 314.004 341.742z"/>
<path style="fill:#ff0000; stroke:none;" d="M288 352L288 372C290.087 367.027 290.087 356.973 288 352z"/>
<path style="fill:#000000; stroke:none;" d="M401 354.522C389.6 356.516 393.189 369.802 404 367.655C408.268 366.808 414.672 361.426 410.971 356.6C409.105 354.165 403.718 354.047 401 354.522z"/>
</svg>
